<svg xmlns="http://www.w3.org/2000/svg" xmlns:xlink="http://www.w3.org/1999/xlink" xmlns:lucid="lucid" width="1560" height="674.94"><g transform="translate(-60 -47.99999999994924)" lucid:page-tab-id="0_0"><path d="M0 0h1760v1360H0z" fill="#fff"/><path d="M453.15 76c0-4.42 3.58-8 8-8h836.75c4.4 0 8 3.58 8 8v25.16c0 4.4-3.6 8-8 8H461.15c-4.42 0-8-3.6-8-8z" stroke="#000" stroke-opacity="0" stroke-width="2" fill="#fff" fill-opacity="0"/><use xlink:href="#a" transform="matrix(1,0,0,1,457.1465527853429,71.99999999994924) translate(194.69024691358027 25.782777777777778)"/><use xlink:href="#b" transform="matrix(1,0,0,1,457.1465527853429,71.99999999994924) translate(308.1013580246914 25.782777777777778)"/><use xlink:href="#c" transform="matrix(1,0,0,1,457.1465527853429,71.99999999994924) translate(388.00629629629634 25.782777777777778)"/><use xlink:href="#d" transform="matrix(1,0,0,1,457.1465527853429,71.99999999994924) translate(552.1865432098766 25.782777777777778)"/><path d="M628.64 107.8h505.86M628.66 107.8h-1.02M1134.47 107.8h1.03" stroke="#a9afb8" stroke-width="2" fill="none"/><path d="M453.15 117.16c0-4.42 3.58-8 8-8h837.7c4.42 0 8 3.58 8 8V120c0 4.42-3.58 8-8 8h-837.7c-4.42 0-8-3.58-8-8z" stroke="#000" stroke-opacity="0" stroke-width="2" fill="#fff" fill-opacity="0"/><use xlink:href="#e" transform="matrix(1,0,0,1,457.1465527853434,113.15522395684805) translate(299.09580246913583 14.917037037037037)"/><use xlink:href="#f" transform="matrix(1,0,0,1,457.1465527853434,113.15522395684805) translate(356.83932098765433 14.917037037037037)"/><use xlink:href="#g" transform="matrix(1,0,0,1,457.1465527853434,113.15522395684805) translate(406.9346913580247 14.917037037037037)"/><use xlink:href="#h" transform="matrix(1,0,0,1,457.1465527853434,113.15522395684805) translate(419.38417695473254 14.917037037037037)"/><use xlink:href="#i" transform="matrix(1,0,0,1,457.1465527853434,113.15522395684805) translate(494.0386008230453 14.917037037037037)"/><use xlink:href="#j" transform="matrix(1,0,0,1,457.1465527853434,113.15522395684805) translate(519.5324279835392 14.917037037037037)"/><path d="M480 259.94c0-2.76 2.24-5 5-5h270c2.76 0 5 2.24 5 5v54c0 2.76-2.24 5-5 5H485c-2.76 0-5-2.24-5-5z" fill="#fff"/><path d="M480 214.94h280v40H480z" fill="#ccc"/><path d="M480 219.94c0-2.76 2.24-5 5-5h270c2.76 0 5 2.24 5 5v94c0 2.76-2.24 5-5 5H485c-2.76 0-5-2.24-5-5zM480 254.94h280M620 254.94v64" stroke="#333" fill="none"/><use xlink:href="#k" transform="matrix(1,0,0,1,490,214.9389138175569) translate(0 23.6)"/><use xlink:href="#l" transform="matrix(1,0,0,1,485,257.4389138175569) translate(0 17.1)"/><use xlink:href="#m" transform="matrix(1,0,0,1,485,257.4389138175569) translate(70.85000000000001 17.1)"/><use xlink:href="#n" transform="matrix(1,0,0,1,625,257.4389138175569) translate(0 17.1)"/><use xlink:href="#o" transform="matrix(1,0,0,1,485,289.4389138175569) translate(0 17.1)"/><use xlink:href="#m" transform="matrix(1,0,0,1,485,289.4389138175569) translate(71.85000000000001 17.1)"/><use xlink:href="#p" transform="matrix(1,0,0,1,625,289.4389138175569) translate(0 17.1)"/><path d="M840 259.94c0-2.76 2.24-5 5-5h270c2.76 0 5 2.24 5 5v118c0 2.76-2.24 5-5 5H845c-2.76 0-5-2.24-5-5z" fill="#fff"/><path d="M840 214.94h280v40H840z" fill="#ccc"/><path d="M840 219.94c0-2.76 2.24-5 5-5h270c2.76 0 5 2.24 5 5v158c0 2.76-2.24 5-5 5H845c-2.76 0-5-2.24-5-5zM840 254.94h280M980 254.94v128" stroke="#333" fill="none"/><use xlink:href="#q" transform="matrix(1,0,0,1,849.9999999999999,214.9389138175569) translate(0 23.6)"/><use xlink:href="#o" transform="matrix(1,0,0,1,844.9999999999999,257.4389138175569) translate(0 17.1)"/><use xlink:href="#r" transform="matrix(1,0,0,1,844.9999999999999,257.4389138175569) translate(71.85000000000001 17.1)"/><use xlink:href="#n" transform="matrix(1,0,0,1,984.9999999999999,257.4389138175569) translate(0 17.1)"/><use xlink:href="#s" transform="matrix(1,0,0,1,844.9999999999999,289.4389138175569) translate(0 17.1)"/><use xlink:href="#n" transform="matrix(1,0,0,1,984.9999999999999,289.4389138175569) translate(0 17.1)"/><use xlink:href="#t" transform="matrix(1,0,0,1,844.9999999999999,321.4389138175569) translate(0 17.1)"/><use xlink:href="#u" transform="matrix(1,0,0,1,984.9999999999999,321.4389138175569) translate(0 17.1)"/><use xlink:href="#v" transform="matrix(1,0,0,1,844.9999999999999,353.4389138175569) translate(0 17.1)"/><use xlink:href="#w" transform="matrix(1,0,0,1,984.9999999999999,353.4389138175569) translate(0 17.1)"/><path d="M80 259.94c0-2.76 2.24-5 5-5h270c2.76 0 5 2.24 5 5v86c0 2.76-2.24 5-5 5H85c-2.76 0-5-2.24-5-5z" fill="#fff"/><path d="M80 214.94h280v40H80z" fill="#ccc"/><path d="M80 219.94c0-2.76 2.24-5 5-5h270c2.76 0 5 2.24 5 5v126c0 2.76-2.24 5-5 5H85c-2.76 0-5-2.24-5-5zM80 254.94h280M218.28 254.94v96" stroke="#333" fill="none"/><use xlink:href="#x" transform="matrix(1,0,0,1,90,214.9389138175569) translate(0 23.6)"/><use xlink:href="#y" transform="matrix(1,0,0,1,85,257.4389138175569) translate(0 17.1)"/><use xlink:href="#r" transform="matrix(1,0,0,1,85,257.4389138175569) translate(22.950000000000003 17.1)"/><use xlink:href="#z" transform="matrix(1,0,0,1,223.27983457586146,257.4389138175569) translate(0 17.1)"/><use xlink:href="#A" transform="matrix(1,0,0,1,85,289.4389138175569) translate(0 17.1)"/><use xlink:href="#B" transform="matrix(1,0,0,1,223.27983457586146,289.4389138175569) translate(0 17.1)"/><use xlink:href="#C" transform="matrix(1,0,0,1,85,321.4389138175569) translate(0 17.1)"/><use xlink:href="#D" transform="matrix(1,0,0,1,223.27983457586146,321.4389138175569) translate(0 17.1)"/><path d="M379.9 270.94h80.2" stroke="#333" fill="none"/><path d="M360.72 260.94l20 10-20 10" stroke="#333" fill="#fff" fill-opacity="0"/><path d="M360.72 270.94h20" stroke="#333" fill="#fff"/><path d="M479.28 280.94l-20-10 20-10" stroke="#333" fill="#fff" fill-opacity="0"/><path d="M479.28 270.94h-20" stroke="#333" fill="#fff"/><path d="M779.9 302.94h8.1c6.63 0 12-5.37 12-12v-8.1c0-6.63 5.37-12 12-12h8.1" stroke="#333" fill="none"/><path d="M760.72 292.94l20 10-20 10" stroke="#333" fill="#fff" fill-opacity="0"/><path d="M760.72 302.94h20" stroke="#333" fill="#fff"/><path d="M839.28 280.84l-20-10 20-10" stroke="#333" fill="#fff" fill-opacity="0"/><path d="M839.28 270.84h-20" stroke="#333" fill="#fff"/><path d="M1240 259.94c0-2.76 2.24-5 5-5h350c2.76 0 5 2.24 5 5v438c0 2.76-2.24 5-5 5h-350c-2.76 0-5-2.24-5-5z" fill="#fff"/><path d="M1240 214.94h360v40h-360z" fill="#ccc"/><path d="M1240 219.94c0-2.76 2.24-5 5-5h350c2.76 0 5 2.24 5 5v478c0 2.76-2.24 5-5 5h-350c-2.76 0-5-2.24-5-5zM1240 254.94h360M1484.94 254.94v448" stroke="#333" fill="none"/><use xlink:href="#E" transform="matrix(1,0,0,1,1250,214.9389138175569) translate(0 23.6)"/><use xlink:href="#y" transform="matrix(1,0,0,1,1245,257.4389138175569) translate(0 17.1)"/><use xlink:href="#r" transform="matrix(1,0,0,1,1245,257.4389138175569) translate(22.950000000000003 17.1)"/><use xlink:href="#z" transform="matrix(1,0,0,1,1489.9366599734285,257.4389138175569) translate(0 17.1)"/><use xlink:href="#o" transform="matrix(1,0,0,1,1245,289.4389138175569) translate(0 17.1)"/><use xlink:href="#m" transform="matrix(1,0,0,1,1245,289.4389138175569) translate(71.85000000000001 17.1)"/><use xlink:href="#n" transform="matrix(1,0,0,1,1489.9366599734285,289.4389138175569) translate(0 17.1)"/><use xlink:href="#F" transform="matrix(1,0,0,1,1245,321.4389138175569) translate(0 17.1)"/><use xlink:href="#n" transform="matrix(1,0,0,1,1489.9366599734285,321.4389138175569) translate(0 17.1)"/><use xlink:href="#t" transform="matrix(1,0,0,1,1245,353.4389138175569) translate(0 17.1)"/><use xlink:href="#G" transform="matrix(1,0,0,1,1489.9366599734285,353.4389138175569) translate(0 17.1)"/><use xlink:href="#H" transform="matrix(1,0,0,1,1245,385.4389138175569) translate(0 17.1)"/><use xlink:href="#G" transform="matrix(1,0,0,1,1489.9366599734285,385.4389138175569) translate(0 17.1)"/><use xlink:href="#I" transform="matrix(1,0,0,1,1245,417.4389138175569) translate(0 17.1)"/><use xlink:href="#G" transform="matrix(1,0,0,1,1489.9366599734285,417.4389138175569) translate(0 17.1)"/><use xlink:href="#J" transform="matrix(1,0,0,1,1245,449.4389138175569) translate(0 17.1)"/><use xlink:href="#G" transform="matrix(1,0,0,1,1489.9366599734285,449.4389138175569) translate(0 17.1)"/><use xlink:href="#K" transform="matrix(1,0,0,1,1245,481.4389138175569) translate(0 17.1)"/><use xlink:href="#G" transform="matrix(1,0,0,1,1489.9366599734285,481.4389138175569) translate(0 17.1)"/><use xlink:href="#L" transform="matrix(1,0,0,1,1245,513.4389138175569) translate(0 17.1)"/><use xlink:href="#G" transform="matrix(1,0,0,1,1489.9366599734285,513.4389138175569) translate(0 17.1)"/><use xlink:href="#M" transform="matrix(1,0,0,1,1245,545.4389138175569) translate(0 17.1)"/><use xlink:href="#G" transform="matrix(1,0,0,1,1489.9366599734285,545.4389138175569) translate(0 17.1)"/><use xlink:href="#N" transform="matrix(1,0,0,1,1245,577.4389138175569) translate(0 17.1)"/><use xlink:href="#G" transform="matrix(1,0,0,1,1489.9366599734285,577.4389138175569) translate(0 17.1)"/><use xlink:href="#O" transform="matrix(1,0,0,1,1245,609.4389138175569) translate(0 17.1)"/><use xlink:href="#G" transform="matrix(1,0,0,1,1489.9366599734285,609.4389138175569) translate(0 17.1)"/><use xlink:href="#P" transform="matrix(1,0,0,1,1245,641.4389138175569) translate(0 17.1)"/><use xlink:href="#G" transform="matrix(1,0,0,1,1489.9366599734285,641.4389138175569) translate(0 17.1)"/><use xlink:href="#Q" transform="matrix(1,0,0,1,1245,673.4389138175569) translate(0 17.1)"/><use xlink:href="#G" transform="matrix(1,0,0,1,1489.9366599734285,673.4389138175569) translate(0 17.1)"/><path d="M1219.5 302.5H1192c-6.63 0-12-5.37-12-12v-7.66c0-6.63-5.37-12-12-12h-27.5" stroke="#333" fill="none"/><path d="M1219.5 292.5v20M1239.5 302.5h-20M1140.5 280.84v-20M1120.5 270.84h20" stroke="#333" fill="#fff"/><path d="M320 519.94c0-2.76 2.24-5 5-5h270c2.76 0 5 2.24 5 5v54c0 2.76-2.24 5-5 5H325c-2.76 0-5-2.24-5-5z" fill="#fff"/><path d="M320 474.94h280v40H320z" fill="#ccc"/><path d="M320 479.94c0-2.76 2.24-5 5-5h270c2.76 0 5 2.24 5 5v94c0 2.76-2.24 5-5 5H325c-2.76 0-5-2.24-5-5zM320 514.94h280M458.28 514.94v64" stroke="#333" fill="none"/><g><use xlink:href="#R" transform="matrix(1,0,0,1,330,474.9389138175569) translate(0 23.6)"/></g><g><use xlink:href="#y" transform="matrix(1,0,0,1,325,517.4389138175569) translate(0 17.1)"/><use xlink:href="#r" transform="matrix(1,0,0,1,325,517.4389138175569) translate(22.950000000000003 17.1)"/></g><g><use xlink:href="#z" transform="matrix(1,0,0,1,463.27983457586146,517.4389138175569) translate(0 17.1)"/></g><g><use xlink:href="#S" transform="matrix(1,0,0,1,325,549.4389138175569) translate(0 17.1)"/></g><g><use xlink:href="#z" transform="matrix(1,0,0,1,463.27983457586146,549.4389138175569) translate(0 17.1)"/></g><defs><path fill="#a9afb8" d="M199 0l-22-63H83L61 0H9l90-248h61L250 0h-51zm-33-102l-36-108c-10 38-24 72-36 108h72" id="T"/><path fill="#a9afb8" d="M169-182c-1-43-94-46-97-3 18 66 151 10 154 114 3 95-165 93-204 36-6-8-10-19-12-30l50-8c3 46 112 56 116 5-17-69-150-10-154-114-4-87 153-88 188-35 5 8 8 18 10 28" id="U"/><path fill="#a9afb8" d="M182 0l-62-99L58 0H3l86-130-79-118h55l55 88 55-88h55l-75 118L237 0h-55" id="V"/><path fill="#a9afb8" d="M-4 44V30h207v14H-4" id="W"/><path fill="#a9afb8" d="M24-248c120-7 223 5 221 122C244-46 201 0 124 0H24v-248zM76-40c74 7 117-18 117-86 0-67-45-88-117-82v168" id="X"/><path fill="#a9afb8" d="M182-130c37 4 62 22 62 59C244 23 116-4 24 0v-248c84 5 203-23 205 63 0 31-19 50-47 55zM76-148c40-3 101 13 101-30 0-44-60-28-101-31v61zm0 110c48-3 116 14 116-37 0-48-69-32-116-35v72" id="Y"/><g id="a"><use transform="matrix(0.0728395061728395,0,0,0.0728395061728395,0,0)" xlink:href="#T"/><use transform="matrix(0.0728395061728395,0,0,0.0728395061728395,18.86543209876543,0)" xlink:href="#U"/><use transform="matrix(0.0728395061728395,0,0,0.0728395061728395,36.34691358024691,0)" xlink:href="#V"/><use transform="matrix(0.0728395061728395,0,0,0.0728395061728395,53.82839506172839,0)" xlink:href="#W"/><use transform="matrix(0.0728395061728395,0,0,0.0728395061728395,68.3962962962963,0)" xlink:href="#X"/><use transform="matrix(0.0728395061728395,0,0,0.0728395061728395,87.26172839506174,0)" xlink:href="#Y"/></g><path fill="#a9afb8" d="M24 0v-248h195v40H76v63h132v40H76v65h150V0H24" id="Z"/><path fill="#a9afb8" d="M135-194c87-1 58 113 63 194h-50c-7-57 23-157-34-157-59 0-34 97-39 157H25l-1-190h47c2 12-1 28 3 38 12-26 28-41 61-42" id="aa"/><path fill="#a9afb8" d="M115-3C79 11 28 4 28-45v-112H4v-33h27l15-45h31v45h36v33H77v99c-1 23 16 31 38 25v30" id="ab"/><path fill="#a9afb8" d="M25-224v-37h50v37H25zM25 0v-190h50V0H25" id="ac"/><path fill="#a9afb8" d="M123 10C108 53 80 86 19 72V37c35 8 53-11 59-39L3-190h52l48 148c12-52 28-100 44-148h51" id="ad"/><g id="b"><use transform="matrix(0.0728395061728395,0,0,0.0728395061728395,0,0)" xlink:href="#Z"/><use transform="matrix(0.0728395061728395,0,0,0.0728395061728395,17.48148148148148,0)" xlink:href="#aa"/><use transform="matrix(0.0728395061728395,0,0,0.0728395061728395,33.43333333333333,0)" xlink:href="#ab"/><use transform="matrix(0.0728395061728395,0,0,0.0728395061728395,42.10123456790124,0)" xlink:href="#ac"/><use transform="matrix(0.0728395061728395,0,0,0.0728395061728395,49.38518518518518,0)" xlink:href="#ab"/><use transform="matrix(0.0728395061728395,0,0,0.0728395061728395,58.05308641975308,0)" xlink:href="#ad"/></g><path fill="#a9afb8" d="M240-174c0 40-23 61-54 70L253 0h-59l-57-94H76V0H24v-248c93 4 217-23 216 74zM76-134c48-2 112 12 112-38 0-48-66-32-112-35v73" id="ae"/><path fill="#a9afb8" d="M185-48c-13 30-37 53-82 52C43 2 14-33 14-96s30-98 90-98c62 0 83 45 84 108H66c0 31 8 55 39 56 18 0 30-7 34-22zm-45-69c5-46-57-63-70-21-2 6-4 13-4 21h74" id="af"/><path fill="#a9afb8" d="M25 0v-261h50V0H25" id="ag"/><path fill="#a9afb8" d="M133-34C117-15 103 5 69 4 32 3 11-16 11-54c-1-60 55-63 116-61 1-26-3-47-28-47-18 1-26 9-28 27l-52-2c7-38 36-58 82-57s74 22 75 68l1 82c-1 14 12 18 25 15v27c-30 8-71 5-69-32zm-48 3c29 0 43-24 42-57-32 0-66-3-65 30 0 17 8 27 23 27" id="ah"/><path fill="#a9afb8" d="M110-194c64 0 96 36 96 99 0 64-35 99-97 99-61 0-95-36-95-99 0-62 34-99 96-99zm-1 164c35 0 45-28 45-65 0-40-10-65-43-65-34 0-45 26-45 65 0 36 10 65 43 65" id="ai"/><path fill="#a9afb8" d="M137-138c1-29-70-34-71-4 15 46 118 7 119 86 1 83-164 76-172 9l43-7c4 19 20 25 44 25 33 8 57-30 24-41C81-84 22-81 20-136c-2-80 154-74 161-7" id="aj"/><path fill="#a9afb8" d="M114-157C55-157 80-60 75 0H25v-261h50l-1 109c12-26 28-41 61-42 86-1 58 113 63 194h-50c-7-57 23-157-34-157" id="ak"/><path fill="#a9afb8" d="M135-194c53 0 70 44 70 98 0 56-19 98-73 100-31 1-45-17-59-34 3 33 2 69 2 105H25l-1-265h48c2 10 0 23 3 31 11-24 29-35 60-35zM114-30c33 0 39-31 40-66 0-38-9-64-40-64-56 0-55 130 0 130" id="al"/><g id="c"><use transform="matrix(0.0728395061728395,0,0,0.0728395061728395,0,0)" xlink:href="#ae"/><use transform="matrix(0.0728395061728395,0,0,0.0728395061728395,18.86543209876543,0)" xlink:href="#af"/><use transform="matrix(0.0728395061728395,0,0,0.0728395061728395,33.43333333333333,0)" xlink:href="#ag"/><use transform="matrix(0.0728395061728395,0,0,0.0728395061728395,40.717283950617286,0)" xlink:href="#ah"/><use transform="matrix(0.0728395061728395,0,0,0.0728395061728395,55.28518518518518,0)" xlink:href="#ab"/><use transform="matrix(0.0728395061728395,0,0,0.0728395061728395,63.95308641975308,0)" xlink:href="#ac"/><use transform="matrix(0.0728395061728395,0,0,0.0728395061728395,71.23703703703703,0)" xlink:href="#ai"/><use transform="matrix(0.0728395061728395,0,0,0.0728395061728395,87.18888888888888,0)" xlink:href="#aa"/><use transform="matrix(0.0728395061728395,0,0,0.0728395061728395,103.14074074074074,0)" xlink:href="#aj"/><use transform="matrix(0.0728395061728395,0,0,0.0728395061728395,117.70864197530864,0)" xlink:href="#ak"/><use transform="matrix(0.0728395061728395,0,0,0.0728395061728395,133.66049382716048,0)" xlink:href="#ac"/><use transform="matrix(0.0728395061728395,0,0,0.0728395061728395,140.94444444444443,0)" xlink:href="#al"/></g><path fill="#a9afb8" d="M195-6C206 82 75 100 31 46c-4-6-6-13-8-21l49-6c3 16 16 24 34 25 40 0 42-37 40-79-11 22-30 35-61 35-53 0-70-43-70-97 0-56 18-96 73-97 30 0 46 14 59 34l2-30h47zm-90-29c32 0 41-27 41-63 0-35-9-62-40-62-32 0-39 29-40 63 0 36 9 62 39 62" id="am"/><path fill="#a9afb8" d="M135-150c-39-12-60 13-60 57V0H25l-1-190h47c2 13-1 29 3 40 6-28 27-53 61-41v41" id="an"/><path fill="#a9afb8" d="M220-157c-53 9-28 100-34 157h-49v-107c1-27-5-49-29-50C55-147 81-57 75 0H25l-1-190h47c2 12-1 28 3 38 10-53 101-56 108 0 13-22 24-43 59-42 82 1 51 116 57 194h-49v-107c-1-25-5-48-29-50" id="ao"/><g id="d"><use transform="matrix(0.0728395061728395,0,0,0.0728395061728395,0,0)" xlink:href="#X"/><use transform="matrix(0.0728395061728395,0,0,0.0728395061728395,18.86543209876543,0)" xlink:href="#ac"/><use transform="matrix(0.0728395061728395,0,0,0.0728395061728395,26.14938271604938,0)" xlink:href="#ah"/><use transform="matrix(0.0728395061728395,0,0,0.0728395061728395,40.717283950617286,0)" xlink:href="#am"/><use transform="matrix(0.0728395061728395,0,0,0.0728395061728395,56.66913580246913,0)" xlink:href="#an"/><use transform="matrix(0.0728395061728395,0,0,0.0728395061728395,66.86666666666666,0)" xlink:href="#ah"/><use transform="matrix(0.0728395061728395,0,0,0.0728395061728395,81.43456790123457,0)" xlink:href="#ao"/></g><path fill="#a9afb8" d="M30 0v-248h33v221h125V0H30" id="ap"/><path fill="#a9afb8" d="M141-36C126-15 110 5 73 4 37 3 15-17 15-53c-1-64 63-63 125-63 3-35-9-54-41-54-24 1-41 7-42 31l-33-3c5-37 33-52 76-52 45 0 72 20 72 64v82c-1 20 7 32 28 27v20c-31 9-61-2-59-35zM48-53c0 20 12 33 32 33 41-3 63-29 60-74-43 2-92-5-92 41" id="aq"/><path fill="#a9afb8" d="M96-169c-40 0-48 33-48 73s9 75 48 75c24 0 41-14 43-38l32 2c-6 37-31 61-74 61-59 0-76-41-82-99-10-93 101-131 147-64 4 7 5 14 7 22l-32 3c-4-21-16-35-41-35" id="ar"/><path fill="#a9afb8" d="M106-169C34-169 62-67 57 0H25v-261h32l-1 103c12-21 28-36 61-36 89 0 53 116 60 194h-32v-121c2-32-8-49-39-48" id="as"/><path fill="#a9afb8" d="M24 0v-261h32V0H24" id="at"/><path fill="#a9afb8" d="M117-194c89-4 53 116 60 194h-32v-121c0-31-8-49-39-48C34-167 62-67 57 0H25l-1-190h30c1 10-1 24 2 32 11-22 29-35 61-36" id="au"/><g id="e"><use transform="matrix(0.04248971193415638,0,0,0.04248971193415638,0,0)" xlink:href="#ap"/><use transform="matrix(0.04248971193415638,0,0,0.04248971193415638,8.497942386831275,0)" xlink:href="#aq"/><use transform="matrix(0.04248971193415638,0,0,0.04248971193415638,16.99588477366255,0)" xlink:href="#ar"/><use transform="matrix(0.04248971193415638,0,0,0.04248971193415638,24.644032921810698,0)" xlink:href="#as"/><use transform="matrix(0.04248971193415638,0,0,0.04248971193415638,33.141975308641975,0)" xlink:href="#at"/><use transform="matrix(0.04248971193415638,0,0,0.04248971193415638,36.498662551440326,0)" xlink:href="#aq"/><use transform="matrix(0.04248971193415638,0,0,0.04248971193415638,44.9966049382716,0)" xlink:href="#au"/></g><path fill="#a9afb8" d="M143 4C61 4 22-44 18-125c-5-107 100-154 193-111 17 8 29 25 37 43l-32 9c-13-25-37-40-76-40-61 0-88 39-88 99 0 61 29 100 91 101 35 0 62-11 79-27v-45h-74v-28h105v86C228-13 192 4 143 4" id="av"/><path fill="#a9afb8" d="M114-163C36-179 61-72 57 0H25l-1-190h30c1 12-1 29 2 39 6-27 23-49 58-41v29" id="aw"/><path fill="#a9afb8" d="M100-194c63 0 86 42 84 106H49c0 40 14 67 53 68 26 1 43-12 49-29l28 8c-11 28-37 45-77 45C44 4 14-33 15-96c1-61 26-98 85-98zm52 81c6-60-76-77-97-28-3 7-6 17-6 28h103" id="ax"/><path fill="#a9afb8" d="M108 0H70L1-190h34L89-25l56-165h34" id="ay"/><g id="f"><use transform="matrix(0.04248971193415638,0,0,0.04248971193415638,0,0)" xlink:href="#av"/><use transform="matrix(0.04248971193415638,0,0,0.04248971193415638,11.897119341563785,0)" xlink:href="#aw"/><use transform="matrix(0.04248971193415638,0,0,0.04248971193415638,16.953395061728394,0)" xlink:href="#ax"/><use transform="matrix(0.04248971193415638,0,0,0.04248971193415638,25.45133744855967,0)" xlink:href="#ay"/><use transform="matrix(0.04248971193415638,0,0,0.04248971193415638,33.099485596707815,0)" xlink:href="#ax"/></g><path fill="#a9afb8" d="M32 76v-337h29V76H32" id="az"/><use transform="matrix(0.04248971193415638,0,0,0.04248971193415638,0,0)" xlink:href="#az" id="g"/><path fill="#a9afb8" d="M30-248c118-7 216 8 213 122C240-48 200 0 122 0H30v-248zM63-27c89 8 146-16 146-99s-60-101-146-95v194" id="aA"/><path fill="#a9afb8" d="M210-169c-67 3-38 105-44 169h-31v-121c0-29-5-50-35-48C34-165 62-65 56 0H25l-1-190h30c1 10-1 24 2 32 10-44 99-50 107 0 11-21 27-35 58-36 85-2 47 119 55 194h-31v-121c0-29-5-49-35-48" id="aB"/><path fill="#a9afb8" d="M115-194c53 0 69 39 70 98 0 66-23 100-70 100C84 3 66-7 56-30L54 0H23l1-261h32v101c10-23 28-34 59-34zm-8 174c40 0 45-34 45-75 0-40-5-75-45-74-42 0-51 32-51 76 0 43 10 73 51 73" id="aC"/><g id="h"><use transform="matrix(0.04248971193415638,0,0,0.04248971193415638,0,0)" xlink:href="#aA"/><use transform="matrix(0.04248971193415638,0,0,0.04248971193415638,11.004835390946502,0)" xlink:href="#ax"/><use transform="matrix(0.04248971193415638,0,0,0.04248971193415638,19.502777777777776,0)" xlink:href="#ar"/><use transform="matrix(0.04248971193415638,0,0,0.04248971193415638,27.150925925925925,0)" xlink:href="#ax"/><use transform="matrix(0.04248971193415638,0,0,0.04248971193415638,35.6488683127572,0)" xlink:href="#aB"/><use transform="matrix(0.04248971193415638,0,0,0.04248971193415638,48.35329218106995,0)" xlink:href="#aC"/><use transform="matrix(0.04248971193415638,0,0,0.04248971193415638,56.851234567901244,0)" xlink:href="#ax"/><use transform="matrix(0.04248971193415638,0,0,0.04248971193415638,65.34917695473251,0)" xlink:href="#aw"/></g><path fill="#a9afb8" d="M27 0v-27h64v-190l-56 39v-29l58-41h29v221h61V0H27" id="aD"/><path fill="#a9afb8" d="M99-251c64 0 84 50 84 122C183-37 130 33 47-8c-14-7-20-23-25-40l30-5c6 39 69 39 84 7 9-19 16-44 16-74-10 22-31 35-62 35-49 0-73-33-73-83 0-54 28-83 82-83zm-1 141c31-1 51-18 51-49 0-36-14-67-51-67-34 0-49 23-49 58 0 34 15 58 49 58" id="aE"/><path fill="#a9afb8" d="M68-38c1 34 0 65-14 84H32c9-13 17-26 17-46H33v-38h35" id="aF"/><g id="i"><use transform="matrix(0.04248971193415638,0,0,0.04248971193415638,0,0)" xlink:href="#aD"/><use transform="matrix(0.04248971193415638,0,0,0.04248971193415638,8.497942386831275,0)" xlink:href="#aE"/><use transform="matrix(0.04248971193415638,0,0,0.04248971193415638,16.99588477366255,0)" xlink:href="#aF"/></g><path fill="#a9afb8" d="M101-251c82-7 93 87 43 132L82-64C71-53 59-42 53-27h129V0H18c2-99 128-94 128-182 0-28-16-43-45-43s-46 15-49 41l-32-3c6-41 34-60 81-64" id="aG"/><path fill="#a9afb8" d="M101-251c68 0 85 55 85 127S166 4 100 4C33 4 14-52 14-124c0-73 17-127 87-127zm-1 229c47 0 54-49 54-102s-4-102-53-102c-51 0-55 48-55 102 0 53 5 102 54 102" id="aH"/><g id="j"><use transform="matrix(0.04248971193415638,0,0,0.04248971193415638,0,0)" xlink:href="#aG"/><use transform="matrix(0.04248971193415638,0,0,0.04248971193415638,8.497942386831275,0)" xlink:href="#aH"/><use transform="matrix(0.04248971193415638,0,0,0.04248971193415638,16.99588477366255,0)" xlink:href="#aG"/><use transform="matrix(0.04248971193415638,0,0,0.04248971193415638,25.493827160493822,0)" xlink:href="#aD"/></g><path fill="#333" d="M67-162c32-53 139-36 121 50C175-51 163 2 97 4 68 4 52-11 42-31 38 6 28 39 22 75H-9l50-265h29c-1 10 0 20-3 28zm89 36c0-26-10-43-35-43-54 0-67 50-69 103-1 29 14 45 42 46 53 0 62-58 62-106" id="aI"/><path fill="#333" d="M30-147c31-64 166-65 159 27C183-49 158 1 86 4 9 8 1-88 30-147zM88-20c53 0 68-48 68-100 0-31-11-51-44-50-52 1-68 46-68 97 0 32 13 53 44 53" id="aJ"/><path fill="#333" d="M66-151c12-25 30-51 66-40l-6 26C45-176 58-65 38 0H6l36-190h30" id="aK"/><path fill="#333" d="M51-54c-9 22 5 41 31 30L79-1C43 14 10-4 19-52l22-115H19l5-23h22l19-43h21l-9 43h35l-4 23H73" id="aL"/><path fill="#333" d="M76-167L44 0H12l33-167H18l4-23h27c3-47 25-81 82-69l-4 24c-35-8-44 15-46 45h37l-5 23H76" id="aM"/><path fill="#333" d="M6 0l50-261h32L37 0H6" id="aN"/><path fill="#333" d="M50-231l6-30h32l-6 30H50zM6 0l37-190h31L37 0H6" id="aO"/><path fill="#333" d="M55-144c13 50 104 24 104 88C159 21 15 23 1-39l26-10c6 40 102 42 102-4-13-50-104-23-104-87 0-71 143-71 148-8l-29 4c-5-35-85-37-89 0" id="aP"/><g id="k"><use transform="matrix(0.05,0,0,0.05,0,0)" xlink:href="#aI"/><use transform="matrix(0.05,0,0,0.05,10,0)" xlink:href="#aJ"/><use transform="matrix(0.05,0,0,0.05,20,0)" xlink:href="#aK"/><use transform="matrix(0.05,0,0,0.05,25.950000000000003,0)" xlink:href="#aL"/><use transform="matrix(0.05,0,0,0.05,30.950000000000003,0)" xlink:href="#aM"/><use transform="matrix(0.05,0,0,0.05,35.95,0)" xlink:href="#aJ"/><use transform="matrix(0.05,0,0,0.05,45.95,0)" xlink:href="#aN"/><use transform="matrix(0.05,0,0,0.05,49.900000000000006,0)" xlink:href="#aO"/><use transform="matrix(0.05,0,0,0.05,53.85,0)" xlink:href="#aJ"/><use transform="matrix(0.05,0,0,0.05,63.85,0)" xlink:href="#aP"/></g><path fill="#333" d="M62-99C39-31 123 0 170-40s38-139 58-208h34C234-144 253 4 115 4 49 4 18-43 31-112l26-136h34" id="aQ"/><path fill="#333" d="M111-194c62-3 86 47 72 106H45c-7 38 6 69 45 68 27-1 43-14 53-32l24 11C152-15 129 4 87 4 38 3 12-23 12-71c0-70 32-119 99-123zm44 81c14-66-71-72-95-28-4 8-8 17-11 28h106" id="aR"/><path fill="#333" d="M-28 44V31h207v13H-28" id="aS"/><path fill="#333" d="M14 0l48-248h34L48 0H14" id="aT"/><path fill="#333" d="M248-139C247-14 144 9 11 0l48-248c105-6 190 8 189 109zm-34 0c1-70-52-87-126-82L50-27c98 7 163-21 164-112" id="aU"/><g id="l"><use transform="matrix(0.05,0,0,0.05,0,0)" xlink:href="#aQ"/><use transform="matrix(0.05,0,0,0.05,12.950000000000001,0)" xlink:href="#aP"/><use transform="matrix(0.05,0,0,0.05,21.950000000000003,0)" xlink:href="#aR"/><use transform="matrix(0.05,0,0,0.05,31.950000000000003,0)" xlink:href="#aK"/><use transform="matrix(0.05,0,0,0.05,37.900000000000006,0)" xlink:href="#aS"/><use transform="matrix(0.05,0,0,0.05,47.900000000000006,0)" xlink:href="#aT"/><use transform="matrix(0.05,0,0,0.05,52.900000000000006,0)" xlink:href="#aU"/></g><path fill="#333" d="M17-49c1-102 45-165 103-212h30C92-210 49-145 49-46 49 4 63 43 85 75H54C30 43 18 2 17-49" id="aV"/><path fill="#333" d="M87-220l-18 92h140l-5 28H64L45 0H11l48-248h178l-5 28H87" id="aW"/><path fill="#333" d="M180 0L97-118 63-96 45 0H11l48-248h34L69-126c44-43 94-81 141-122h43L121-137 219 0h-39" id="aX"/><path fill="#333" d="M98-137C97-35 54 29-4 75h-31C23 23 67-41 67-140c0-50-15-89-37-121h31c24 32 36 73 37 124" id="aY"/><g id="m"><use transform="matrix(0.05,0,0,0.05,0,0)" xlink:href="#aV"/><use transform="matrix(0.05,0,0,0.05,5.95,0)" xlink:href="#aW"/><use transform="matrix(0.05,0,0,0.05,16.900000000000002,0)" xlink:href="#aX"/><use transform="matrix(0.05,0,0,0.05,28.900000000000002,0)" xlink:href="#aY"/></g><path fill="#333" d="M89 0H52L20-190h33L74-25l89-165h34" id="aZ"/><path fill="#333" d="M165-48c-4 18 1 34 23 27l-3 20c-29 8-62 0-52-35h-2C116-14 99 4 63 4 30 4 8-16 8-49c0-68 71-67 138-67 10-26 0-56-31-54-26 1-42 9-47 31l-32-5c8-67 160-71 144 15-5 28-9 54-15 81zM42-50c3 52 80 24 89-6 7-12 7-24 11-38-47 1-103-4-100 44" id="ba"/><path fill="#333" d="M44-68c0 29 11 47 38 47 30 0 42-19 51-41l28 9C148-21 126 4 82 4 31 4 10-29 12-85c3-77 74-140 146-93 12 8 15 23 18 40l-31 5c-1-22-13-36-36-36-52 0-65 49-65 101" id="bb"/><path fill="#333" d="M67-158c15-20 31-36 64-36 94 0 33 127 27 194h-32l25-140c3-38-53-32-70-12C52-117 51-51 37 0H6l51-261h31" id="bc"/><path fill="#333" d="M149-56L138 0h-32l11-56H2l5-25 144-167h35L154-81h33l-5 25h-33zm-4-147L40-81h82" id="bd"/><path fill="#333" d="M151-85c6-55-69-56-94-29H26l34-134h141l-5 27H84l-20 79c41-34 127-11 121 53C199 13 30 38 8-54l29-8C52 0 159-13 151-85" id="be"/><g id="n"><use transform="matrix(0.05,0,0,0.05,0,0)" xlink:href="#aZ"/><use transform="matrix(0.05,0,0,0.05,9,0)" xlink:href="#ba"/><use transform="matrix(0.05,0,0,0.05,19,0)" xlink:href="#aK"/><use transform="matrix(0.05,0,0,0.05,24.95,0)" xlink:href="#bb"/><use transform="matrix(0.05,0,0,0.05,33.95,0)" xlink:href="#bc"/><use transform="matrix(0.05,0,0,0.05,43.95,0)" xlink:href="#ba"/><use transform="matrix(0.05,0,0,0.05,53.95,0)" xlink:href="#aK"/><use transform="matrix(0.05,0,0,0.05,59.900000000000006,0)" xlink:href="#aV"/><use transform="matrix(0.05,0,0,0.05,65.85000000000001,0)" xlink:href="#bd"/><use transform="matrix(0.05,0,0,0.05,75.85000000000001,0)" xlink:href="#be"/><use transform="matrix(0.05,0,0,0.05,85.85000000000001,0)" xlink:href="#aY"/></g><path fill="#333" d="M127 0L80-88 50-66 37 0H6l51-261h31L57-100l99-90h39l-93 82L161 0h-34" id="bf"/><path fill="#333" d="M133-28C103 26-5 8 13-77c13-62 24-115 90-117 29-1 46 15 56 35l19-102h32L160 0h-30zM45-64c-2 27 10 43 35 43 54-1 69-50 69-103 0-29-15-46-42-46-53-1-58 58-62 106" id="bg"/><g id="o"><use transform="matrix(0.05,0,0,0.05,0,0)" xlink:href="#aL"/><use transform="matrix(0.05,0,0,0.05,5,0)" xlink:href="#aO"/><use transform="matrix(0.05,0,0,0.05,8.95,0)" xlink:href="#bb"/><use transform="matrix(0.05,0,0,0.05,17.95,0)" xlink:href="#bf"/><use transform="matrix(0.05,0,0,0.05,26.950000000000003,0)" xlink:href="#aR"/><use transform="matrix(0.05,0,0,0.05,36.95,0)" xlink:href="#aK"/><use transform="matrix(0.05,0,0,0.05,42.900000000000006,0)" xlink:href="#aS"/><use transform="matrix(0.05,0,0,0.05,52.900000000000006,0)" xlink:href="#aO"/><use transform="matrix(0.05,0,0,0.05,56.85,0)" xlink:href="#bg"/></g><g id="p"><use transform="matrix(0.05,0,0,0.05,0,0)" xlink:href="#aZ"/><use transform="matrix(0.05,0,0,0.05,9,0)" xlink:href="#ba"/><use transform="matrix(0.05,0,0,0.05,19,0)" xlink:href="#aK"/><use transform="matrix(0.05,0,0,0.05,24.95,0)" xlink:href="#bb"/><use transform="matrix(0.05,0,0,0.05,33.95,0)" xlink:href="#bc"/><use transform="matrix(0.05,0,0,0.05,43.95,0)" xlink:href="#ba"/><use transform="matrix(0.05,0,0,0.05,53.95,0)" xlink:href="#aK"/><use transform="matrix(0.05,0,0,0.05,59.900000000000006,0)" xlink:href="#aV"/><use transform="matrix(0.05,0,0,0.05,65.85000000000001,0)" xlink:href="#bd"/><use transform="matrix(0.05,0,0,0.05,75.85000000000001,0)" xlink:href="#aY"/></g><path fill="#333" d="M151-220L108 0H75l42-220H32l6-28h203l-5 28h-85" id="bh"/><g id="q"><use transform="matrix(0.05,0,0,0.05,0,0)" xlink:href="#bh"/><use transform="matrix(0.05,0,0,0.05,10.8,0)" xlink:href="#aO"/><use transform="matrix(0.05,0,0,0.05,14.75,0)" xlink:href="#bb"/><use transform="matrix(0.05,0,0,0.05,23.75,0)" xlink:href="#bf"/><use transform="matrix(0.05,0,0,0.05,32.75,0)" xlink:href="#aR"/><use transform="matrix(0.05,0,0,0.05,42.75,0)" xlink:href="#aK"/><use transform="matrix(0.05,0,0,0.05,48.7,0)" xlink:href="#aP"/></g><path fill="#333" d="M238-179c0 84-86 86-175 82L45 0H11l48-248c82 0 179-12 179 69zm-34 1c0-53-64-42-116-43l-19 98c63 0 135 9 135-55" id="bi"/><g id="r"><use transform="matrix(0.05,0,0,0.05,0,0)" xlink:href="#aV"/><use transform="matrix(0.05,0,0,0.05,5.95,0)" xlink:href="#bi"/><use transform="matrix(0.05,0,0,0.05,17.95,0)" xlink:href="#aX"/><use transform="matrix(0.05,0,0,0.05,29.950000000000003,0)" xlink:href="#aY"/></g><path fill="#333" d="M248-111c6-24 9-61-24-58-72 9-57 108-77 169h-31l26-142c3-37-50-30-64-10C52-115 50-51 37 0H6l36-190h30c-1 10-6 24-4 32 13-43 101-52 105 5 13-22 29-41 61-41 90 0 28 129 23 194h-31" id="bj"/><path fill="#333" d="M67-158c22-48 132-52 116 29L158 0h-32l25-140c3-38-53-32-70-12C52-117 51-52 38 0H6l36-190h30" id="bk"/><path fill="#333" d="M198-190L69 30C53 58 25 83-20 72c4-11-1-27 19-22 33-1 43-29 59-52L20-190h32L79-34l84-156h35" id="bl"/><g id="s"><use transform="matrix(0.05,0,0,0.05,0,0)" xlink:href="#bb"/><use transform="matrix(0.05,0,0,0.05,9,0)" xlink:href="#aJ"/><use transform="matrix(0.05,0,0,0.05,19,0)" xlink:href="#bj"/><use transform="matrix(0.05,0,0,0.05,33.95,0)" xlink:href="#aI"/><use transform="matrix(0.05,0,0,0.05,43.95,0)" xlink:href="#ba"/><use transform="matrix(0.05,0,0,0.05,53.95,0)" xlink:href="#bk"/><use transform="matrix(0.05,0,0,0.05,63.95,0)" xlink:href="#bl"/><use transform="matrix(0.05,0,0,0.05,72.95,0)" xlink:href="#aS"/><use transform="matrix(0.05,0,0,0.05,82.95,0)" xlink:href="#bk"/><use transform="matrix(0.05,0,0,0.05,92.95,0)" xlink:href="#ba"/><use transform="matrix(0.05,0,0,0.05,102.95,0)" xlink:href="#bj"/><use transform="matrix(0.05,0,0,0.05,117.9,0)" xlink:href="#aR"/></g><path d="M135-143c-3-34-86-38-87 0 15 53 115 12 119 90S17 21 10-45l28-5c4 36 97 45 98 0-10-56-113-15-118-90-4-57 82-63 122-42 12 7 21 19 24 35" id="bm"/><path d="M100-194c63 0 86 42 84 106H49c0 40 14 67 53 68 26 1 43-12 49-29l28 8c-11 28-37 45-77 45C44 4 14-33 15-96c1-61 26-98 85-98zm52 81c6-60-76-77-97-28-3 7-6 17-6 28h103" id="bn"/><path d="M96-169c-40 0-48 33-48 73s9 75 48 75c24 0 41-14 43-38l32 2c-6 37-31 61-74 61-59 0-76-41-82-99-10-93 101-131 147-64 4 7 5 14 7 22l-32 3c-4-21-16-35-41-35" id="bo"/><path d="M59-47c-2 24 18 29 38 22v24C64 9 27 4 27-40v-127H5v-23h24l9-43h21v43h35v23H59v120" id="bp"/><path d="M100-194c62-1 85 37 85 99 1 63-27 99-86 99S16-35 15-95c0-66 28-99 85-99zM99-20c44 1 53-31 53-75 0-43-8-75-51-75s-53 32-53 75 10 74 51 75" id="bq"/><path d="M114-163C36-179 61-72 57 0H25l-1-190h30c1 12-1 29 2 39 6-27 23-49 58-41v29" id="br"/><g id="t"><use transform="matrix(0.05,0,0,0.05,0,0)" xlink:href="#bm"/><use transform="matrix(0.05,0,0,0.05,9,0)" xlink:href="#bn"/><use transform="matrix(0.05,0,0,0.05,19,0)" xlink:href="#bo"/><use transform="matrix(0.05,0,0,0.05,28,0)" xlink:href="#bp"/><use transform="matrix(0.05,0,0,0.05,33,0)" xlink:href="#bq"/><use transform="matrix(0.05,0,0,0.05,43,0)" xlink:href="#br"/></g><path d="M108 0H70L1-190h34L89-25l56-165h34" id="bs"/><path d="M141-36C126-15 110 5 73 4 37 3 15-17 15-53c-1-64 63-63 125-63 3-35-9-54-41-54-24 1-41 7-42 31l-33-3c5-37 33-52 76-52 45 0 72 20 72 64v82c-1 20 7 32 28 27v20c-31 9-61-2-59-35zM48-53c0 20 12 33 32 33 41-3 63-29 60-74-43 2-92-5-92 41" id="bt"/><path d="M106-169C34-169 62-67 57 0H25v-261h32l-1 103c12-21 28-36 61-36 89 0 53 116 60 194h-32v-121c2-32-8-49-39-48" id="bu"/><path d="M87 75C49 33 22-17 22-94c0-76 28-126 65-167h31c-38 41-64 92-64 168S80 34 118 75H87" id="bv"/><path d="M101-251c82-7 93 87 43 132L82-64C71-53 59-42 53-27h129V0H18c2-99 128-94 128-182 0-28-16-43-45-43s-46 15-49 41l-32-3c6-41 34-60 81-64" id="bw"/><path d="M101-251c68 0 85 55 85 127S166 4 100 4C33 4 14-52 14-124c0-73 17-127 87-127zm-1 229c47 0 54-49 54-102s-4-102-53-102c-51 0-55 48-55 102 0 53 5 102 54 102" id="bx"/><path d="M33-261c38 41 65 92 65 168S71 34 33 75H2C39 34 66-17 66-93S39-220 2-261h31" id="by"/><g id="u"><use transform="matrix(0.05,0,0,0.05,0,0)" xlink:href="#bs"/><use transform="matrix(0.05,0,0,0.05,9,0)" xlink:href="#bt"/><use transform="matrix(0.05,0,0,0.05,19,0)" xlink:href="#br"/><use transform="matrix(0.05,0,0,0.05,24.95,0)" xlink:href="#bo"/><use transform="matrix(0.05,0,0,0.05,33.95,0)" xlink:href="#bu"/><use transform="matrix(0.05,0,0,0.05,43.95,0)" xlink:href="#bt"/><use transform="matrix(0.05,0,0,0.05,53.95,0)" xlink:href="#br"/><use transform="matrix(0.05,0,0,0.05,59.900000000000006,0)" xlink:href="#bv"/><use transform="matrix(0.05,0,0,0.05,65.85000000000001,0)" xlink:href="#bw"/><use transform="matrix(0.05,0,0,0.05,75.85000000000001,0)" xlink:href="#bx"/><use transform="matrix(0.05,0,0,0.05,85.85000000000001,0)" xlink:href="#bx"/><use transform="matrix(0.05,0,0,0.05,95.85000000000001,0)" xlink:href="#by"/></g><path d="M210-169c-67 3-38 105-44 169h-31v-121c0-29-5-50-35-48C34-165 62-65 56 0H25l-1-190h30c1 10-1 24 2 32 10-44 99-50 107 0 11-21 27-35 58-36 85-2 47 119 55 194h-31v-121c0-29-5-49-35-48" id="bz"/><path d="M143 0L79-87 56-68V0H24v-261h32v163l83-92h37l-77 82L181 0h-38" id="bA"/><path d="M115-194c55 1 70 41 70 98S169 2 115 4C84 4 66-9 55-30l1 105H24l-1-265h31l2 30c10-21 28-34 59-34zm-8 174c40 0 45-34 45-75s-6-73-45-74c-42 0-51 32-51 76 0 43 10 73 51 73" id="bB"/><g id="v"><use transform="matrix(0.05,0,0,0.05,0,0)" xlink:href="#bz"/><use transform="matrix(0.05,0,0,0.05,14.950000000000001,0)" xlink:href="#bt"/><use transform="matrix(0.05,0,0,0.05,24.950000000000003,0)" xlink:href="#br"/><use transform="matrix(0.05,0,0,0.05,30.900000000000002,0)" xlink:href="#bA"/><use transform="matrix(0.05,0,0,0.05,39.900000000000006,0)" xlink:href="#bn"/><use transform="matrix(0.05,0,0,0.05,49.900000000000006,0)" xlink:href="#bp"/><use transform="matrix(0.05,0,0,0.05,54.900000000000006,0)" xlink:href="#bo"/><use transform="matrix(0.05,0,0,0.05,63.900000000000006,0)" xlink:href="#bt"/><use transform="matrix(0.05,0,0,0.05,73.9,0)" xlink:href="#bB"/></g><path d="M24-231v-30h32v30H24zM24 0v-190h32V0H24" id="bC"/><path d="M117-194c89-4 53 116 60 194h-32v-121c0-31-8-49-39-48C34-167 62-67 57 0H25l-1-190h30c1 10-1 24 2 32 11-22 29-35 61-36" id="bD"/><path d="M177-190C167-65 218 103 67 71c-23-6-38-20-44-43l32-5c15 47 100 32 89-28v-30C133-14 115 1 83 1 29 1 15-40 15-95c0-56 16-97 71-98 29-1 48 16 59 35 1-10 0-23 2-32h30zM94-22c36 0 50-32 50-73 0-42-14-75-50-75-39 0-46 34-46 75s6 73 46 73" id="bE"/><g id="w"><use transform="matrix(0.05,0,0,0.05,0,0)" xlink:href="#bC"/><use transform="matrix(0.05,0,0,0.05,3.95,0)" xlink:href="#bD"/><use transform="matrix(0.05,0,0,0.05,13.949999999999998,0)" xlink:href="#bp"/><use transform="matrix(0.05,0,0,0.05,18.95,0)" xlink:href="#bn"/><use transform="matrix(0.05,0,0,0.05,28.950000000000003,0)" xlink:href="#bE"/><use transform="matrix(0.05,0,0,0.05,38.95,0)" xlink:href="#bn"/><use transform="matrix(0.05,0,0,0.05,48.95,0)" xlink:href="#br"/></g><g id="x"><use transform="matrix(0.05,0,0,0.05,0,0)" xlink:href="#aQ"/><use transform="matrix(0.05,0,0,0.05,12.950000000000001,0)" xlink:href="#aP"/><use transform="matrix(0.05,0,0,0.05,21.950000000000003,0)" xlink:href="#aR"/><use transform="matrix(0.05,0,0,0.05,31.950000000000003,0)" xlink:href="#aK"/><use transform="matrix(0.05,0,0,0.05,37.900000000000006,0)" xlink:href="#aP"/></g><g id="y"><use transform="matrix(0.05,0,0,0.05,0,0)" xlink:href="#aT"/><use transform="matrix(0.05,0,0,0.05,5,0)" xlink:href="#aU"/></g><g id="z"><use transform="matrix(0.05,0,0,0.05,0,0)" xlink:href="#aO"/><use transform="matrix(0.05,0,0,0.05,3.95,0)" xlink:href="#bk"/><use transform="matrix(0.05,0,0,0.05,13.949999999999998,0)" xlink:href="#aL"/></g><path fill="#333" d="M67 3c-93-2-31-127-26-193h32L48-50c-3 39 53 32 70 12 30-34 30-101 43-152h32L157 0h-30c1-10 6-24 4-33-14 20-29 37-64 36" id="bF"/><g id="A"><use transform="matrix(0.05,0,0,0.05,0,0)" xlink:href="#bF"/><use transform="matrix(0.05,0,0,0.05,10,0)" xlink:href="#aP"/><use transform="matrix(0.05,0,0,0.05,19,0)" xlink:href="#aR"/><use transform="matrix(0.05,0,0,0.05,29,0)" xlink:href="#aK"/><use transform="matrix(0.05,0,0,0.05,34.95,0)" xlink:href="#bk"/><use transform="matrix(0.05,0,0,0.05,44.95,0)" xlink:href="#ba"/><use transform="matrix(0.05,0,0,0.05,54.95,0)" xlink:href="#bj"/><use transform="matrix(0.05,0,0,0.05,69.9,0)" xlink:href="#aR"/></g><path fill="#333" d="M9 0l6-27h63l36-188-63 39 6-31 66-41h29L110-27h60l-5 27H9" id="bG"/><path fill="#333" d="M16-82c0-90 25-169 113-169 48 0 68 33 68 82C197-79 170 4 84 4 37 4 16-31 16-82zm30 5c0 32 11 55 40 55 69 0 76-79 80-149 2-32-10-55-39-55-69 0-81 81-81 149" id="bH"/><g id="B"><use transform="matrix(0.05,0,0,0.05,0,0)" xlink:href="#aZ"/><use transform="matrix(0.05,0,0,0.05,9,0)" xlink:href="#ba"/><use transform="matrix(0.05,0,0,0.05,19,0)" xlink:href="#aK"/><use transform="matrix(0.05,0,0,0.05,24.95,0)" xlink:href="#bb"/><use transform="matrix(0.05,0,0,0.05,33.95,0)" xlink:href="#bc"/><use transform="matrix(0.05,0,0,0.05,43.95,0)" xlink:href="#ba"/><use transform="matrix(0.05,0,0,0.05,53.95,0)" xlink:href="#aK"/><use transform="matrix(0.05,0,0,0.05,59.900000000000006,0)" xlink:href="#aV"/><use transform="matrix(0.05,0,0,0.05,65.85000000000001,0)" xlink:href="#bG"/><use transform="matrix(0.05,0,0,0.05,75.85000000000001,0)" xlink:href="#bH"/><use transform="matrix(0.05,0,0,0.05,85.85000000000001,0)" xlink:href="#bH"/><use transform="matrix(0.05,0,0,0.05,95.85000000000001,0)" xlink:href="#aY"/></g><path fill="#333" d="M188 0h-37l-8-164L71 0H34L18-190h31l8 164 75-164h34l8 164 74-164h31" id="bI"/><g id="C"><use transform="matrix(0.05,0,0,0.05,0,0)" xlink:href="#aI"/><use transform="matrix(0.05,0,0,0.05,10,0)" xlink:href="#ba"/><use transform="matrix(0.05,0,0,0.05,20,0)" xlink:href="#aP"/><use transform="matrix(0.05,0,0,0.05,29,0)" xlink:href="#aP"/><use transform="matrix(0.05,0,0,0.05,38,0)" xlink:href="#bI"/><use transform="matrix(0.05,0,0,0.05,50.95,0)" xlink:href="#aJ"/><use transform="matrix(0.05,0,0,0.05,60.95,0)" xlink:href="#aK"/><use transform="matrix(0.05,0,0,0.05,66.9,0)" xlink:href="#bg"/></g><path fill="#333" d="M123-251c66 0 92 69 53 113C138-94 73-75 39-27h128l-5 27H-2c17-92 123-93 159-163 14-28-1-64-36-62-29 2-46 17-54 41l-30-6c13-36 37-61 86-61" id="bJ"/><g id="D"><use transform="matrix(0.05,0,0,0.05,0,0)" xlink:href="#aZ"/><use transform="matrix(0.05,0,0,0.05,9,0)" xlink:href="#ba"/><use transform="matrix(0.05,0,0,0.05,19,0)" xlink:href="#aK"/><use transform="matrix(0.05,0,0,0.05,24.95,0)" xlink:href="#bb"/><use transform="matrix(0.05,0,0,0.05,33.95,0)" xlink:href="#bc"/><use transform="matrix(0.05,0,0,0.05,43.95,0)" xlink:href="#ba"/><use transform="matrix(0.05,0,0,0.05,53.95,0)" xlink:href="#aK"/><use transform="matrix(0.05,0,0,0.05,59.900000000000006,0)" xlink:href="#aV"/><use transform="matrix(0.05,0,0,0.05,65.85000000000001,0)" xlink:href="#bJ"/><use transform="matrix(0.05,0,0,0.05,75.85000000000001,0)" xlink:href="#bH"/><use transform="matrix(0.05,0,0,0.05,85.85000000000001,0)" xlink:href="#bH"/><use transform="matrix(0.05,0,0,0.05,95.85000000000001,0)" xlink:href="#aY"/></g><g id="E"><use transform="matrix(0.05,0,0,0.05,0,0)" xlink:href="#aT"/><use transform="matrix(0.05,0,0,0.05,5,0)" xlink:href="#bk"/><use transform="matrix(0.05,0,0,0.05,15,0)" xlink:href="#aM"/><use transform="matrix(0.05,0,0,0.05,20,0)" xlink:href="#aJ"/></g><path fill="#333" d="M-8 0l5-24 140-142H31l5-24h145l-5 24L36-24h119l-5 24H-8" id="bK"/><g id="F"><use transform="matrix(0.05,0,0,0.05,0,0)" xlink:href="#bK"/><use transform="matrix(0.05,0,0,0.05,9,0)" xlink:href="#aO"/><use transform="matrix(0.05,0,0,0.05,12.949999999999998,0)" xlink:href="#aI"/><use transform="matrix(0.05,0,0,0.05,22.95,0)" xlink:href="#bb"/><use transform="matrix(0.05,0,0,0.05,31.950000000000003,0)" xlink:href="#aJ"/><use transform="matrix(0.05,0,0,0.05,41.95,0)" xlink:href="#bg"/><use transform="matrix(0.05,0,0,0.05,51.95,0)" xlink:href="#aR"/></g><path d="M54-142c48-35 137-8 131 61C196 18 31 33 14-55l32-4c7 23 22 37 52 37 35-1 51-22 54-58 4-55-73-65-99-34H22l8-134h141v27H59" id="bL"/><g id="G"><use transform="matrix(0.05,0,0,0.05,0,0)" xlink:href="#bs"/><use transform="matrix(0.05,0,0,0.05,9,0)" xlink:href="#bt"/><use transform="matrix(0.05,0,0,0.05,19,0)" xlink:href="#br"/><use transform="matrix(0.05,0,0,0.05,24.95,0)" xlink:href="#bo"/><use transform="matrix(0.05,0,0,0.05,33.95,0)" xlink:href="#bu"/><use transform="matrix(0.05,0,0,0.05,43.95,0)" xlink:href="#bt"/><use transform="matrix(0.05,0,0,0.05,53.95,0)" xlink:href="#br"/><use transform="matrix(0.05,0,0,0.05,59.900000000000006,0)" xlink:href="#bv"/><use transform="matrix(0.05,0,0,0.05,65.85000000000001,0)" xlink:href="#bL"/><use transform="matrix(0.05,0,0,0.05,75.85000000000001,0)" xlink:href="#bx"/><use transform="matrix(0.05,0,0,0.05,85.85000000000001,0)" xlink:href="#bx"/><use transform="matrix(0.05,0,0,0.05,95.85000000000001,0)" xlink:href="#by"/></g><path d="M24 0v-261h32V0H24" id="bM"/><path d="M160-131c35 5 61 23 61 61C221 17 115-2 30 0v-248c76 3 177-17 177 60 0 33-19 50-47 57zm-97-11c50-1 110 9 110-42 0-47-63-36-110-37v79zm0 115c55-2 124 14 124-45 0-56-70-42-124-44v89" id="bN"/><path d="M84 4C-5 8 30-112 23-190h32v120c0 31 7 50 39 49 72-2 45-101 50-169h31l1 190h-30c-1-10 1-25-2-33-11 22-28 36-60 37" id="bO"/><path d="M185-189c-5-48-123-54-124 2 14 75 158 14 163 119 3 78-121 87-175 55-17-10-28-26-33-46l33-7c5 56 141 63 141-1 0-78-155-14-162-118-5-82 145-84 179-34 5 7 8 16 11 25" id="bP"/><path d="M179-190L93 31C79 59 56 82 12 73V49c39 6 53-20 64-50L1-190h34L92-34l54-156h33" id="bQ"/><g id="H"><use transform="matrix(0.05,0,0,0.05,0,0)" xlink:href="#bM"/><use transform="matrix(0.05,0,0,0.05,3.95,0)" xlink:href="#bq"/><use transform="matrix(0.05,0,0,0.05,13.949999999999998,0)" xlink:href="#bD"/><use transform="matrix(0.05,0,0,0.05,23.95,0)" xlink:href="#bE"/><use transform="matrix(0.05,0,0,0.05,33.95,0)" xlink:href="#bN"/><use transform="matrix(0.05,0,0,0.05,45.95,0)" xlink:href="#bO"/><use transform="matrix(0.05,0,0,0.05,55.95,0)" xlink:href="#bm"/><use transform="matrix(0.05,0,0,0.05,64.95,0)" xlink:href="#bC"/><use transform="matrix(0.05,0,0,0.05,68.9,0)" xlink:href="#bD"/><use transform="matrix(0.05,0,0,0.05,78.9,0)" xlink:href="#bn"/><use transform="matrix(0.05,0,0,0.05,88.9,0)" xlink:href="#bm"/><use transform="matrix(0.05,0,0,0.05,97.9,0)" xlink:href="#bm"/><use transform="matrix(0.05,0,0,0.05,106.9,0)" xlink:href="#bP"/><use transform="matrix(0.05,0,0,0.05,118.9,0)" xlink:href="#bO"/><use transform="matrix(0.05,0,0,0.05,128.9,0)" xlink:href="#bz"/><use transform="matrix(0.05,0,0,0.05,143.85,0)" xlink:href="#bz"/><use transform="matrix(0.05,0,0,0.05,158.79999999999998,0)" xlink:href="#bt"/><use transform="matrix(0.05,0,0,0.05,168.79999999999998,0)" xlink:href="#br"/><use transform="matrix(0.05,0,0,0.05,174.74999999999997,0)" xlink:href="#bQ"/></g><g id="I"><use transform="matrix(0.05,0,0,0.05,0,0)" xlink:href="#bo"/><use transform="matrix(0.05,0,0,0.05,9,0)" xlink:href="#bC"/><use transform="matrix(0.05,0,0,0.05,12.949999999999998,0)" xlink:href="#bp"/><use transform="matrix(0.05,0,0,0.05,17.95,0)" xlink:href="#bQ"/></g><g id="J"><use transform="matrix(0.05,0,0,0.05,0,0)" xlink:href="#bB"/><use transform="matrix(0.05,0,0,0.05,10,0)" xlink:href="#bu"/><use transform="matrix(0.05,0,0,0.05,20,0)" xlink:href="#bq"/><use transform="matrix(0.05,0,0,0.05,30,0)" xlink:href="#bD"/><use transform="matrix(0.05,0,0,0.05,40,0)" xlink:href="#bn"/></g><g id="K"><use transform="matrix(0.05,0,0,0.05,0,0)" xlink:href="#bm"/><use transform="matrix(0.05,0,0,0.05,9,0)" xlink:href="#bp"/><use transform="matrix(0.05,0,0,0.05,14,0)" xlink:href="#bt"/><use transform="matrix(0.05,0,0,0.05,24,0)" xlink:href="#bp"/><use transform="matrix(0.05,0,0,0.05,29,0)" xlink:href="#bn"/></g><g id="L"><use transform="matrix(0.05,0,0,0.05,0,0)" xlink:href="#bo"/><use transform="matrix(0.05,0,0,0.05,9,0)" xlink:href="#bq"/><use transform="matrix(0.05,0,0,0.05,19,0)" xlink:href="#bz"/><use transform="matrix(0.05,0,0,0.05,33.95,0)" xlink:href="#bB"/><use transform="matrix(0.05,0,0,0.05,43.95,0)" xlink:href="#bn"/><use transform="matrix(0.05,0,0,0.05,53.95,0)" xlink:href="#bD"/><use transform="matrix(0.05,0,0,0.05,63.95,0)" xlink:href="#bm"/><use transform="matrix(0.05,0,0,0.05,72.95,0)" xlink:href="#bt"/><use transform="matrix(0.05,0,0,0.05,82.95,0)" xlink:href="#bp"/><use transform="matrix(0.05,0,0,0.05,87.95,0)" xlink:href="#bC"/><use transform="matrix(0.05,0,0,0.05,91.9,0)" xlink:href="#bq"/><use transform="matrix(0.05,0,0,0.05,101.9,0)" xlink:href="#bD"/></g><g id="M"><use transform="matrix(0.05,0,0,0.05,0,0)" xlink:href="#bo"/><use transform="matrix(0.05,0,0,0.05,9,0)" xlink:href="#bq"/><use transform="matrix(0.05,0,0,0.05,19,0)" xlink:href="#bO"/><use transform="matrix(0.05,0,0,0.05,29,0)" xlink:href="#bD"/><use transform="matrix(0.05,0,0,0.05,39,0)" xlink:href="#bp"/><use transform="matrix(0.05,0,0,0.05,44,0)" xlink:href="#br"/><use transform="matrix(0.05,0,0,0.05,49.95,0)" xlink:href="#bQ"/></g><path d="M206 0h-36l-40-164L89 0H53L-1-190h32L70-26l43-164h34l41 164 42-164h31" id="bR"/><path d="M115-194c53 0 69 39 70 98 0 66-23 100-70 100C84 3 66-7 56-30L54 0H23l1-261h32v101c10-23 28-34 59-34zm-8 174c40 0 45-34 45-75 0-40-5-75-45-74-42 0-51 32-51 76 0 43 10 73 51 73" id="bS"/><g id="N"><use transform="matrix(0.05,0,0,0.05,0,0)" xlink:href="#bR"/><use transform="matrix(0.05,0,0,0.05,12.950000000000001,0)" xlink:href="#bn"/><use transform="matrix(0.05,0,0,0.05,22.950000000000003,0)" xlink:href="#bS"/><use transform="matrix(0.05,0,0,0.05,32.95,0)" xlink:href="#bm"/><use transform="matrix(0.05,0,0,0.05,41.95,0)" xlink:href="#bC"/><use transform="matrix(0.05,0,0,0.05,45.900000000000006,0)" xlink:href="#bp"/><use transform="matrix(0.05,0,0,0.05,50.900000000000006,0)" xlink:href="#bn"/></g><g id="O"><use transform="matrix(0.05,0,0,0.05,0,0)" xlink:href="#bt"/><use transform="matrix(0.05,0,0,0.05,10,0)" xlink:href="#bE"/><use transform="matrix(0.05,0,0,0.05,20,0)" xlink:href="#bn"/></g><path d="M85-194c31 0 48 13 60 33l-1-100h32l1 261h-30c-2-10 0-23-3-31C134-8 116 4 85 4 32 4 16-35 15-94c0-66 23-100 70-100zm9 24c-40 0-46 34-46 75 0 40 6 74 45 74 42 0 51-32 51-76 0-42-9-74-50-73" id="bT"/><g id="P"><use transform="matrix(0.05,0,0,0.05,0,0)" xlink:href="#bt"/><use transform="matrix(0.05,0,0,0.05,10,0)" xlink:href="#bT"/><use transform="matrix(0.05,0,0,0.05,20,0)" xlink:href="#bT"/><use transform="matrix(0.05,0,0,0.05,30,0)" xlink:href="#br"/><use transform="matrix(0.05,0,0,0.05,35.95,0)" xlink:href="#bn"/><use transform="matrix(0.05,0,0,0.05,45.95,0)" xlink:href="#bm"/><use transform="matrix(0.05,0,0,0.05,54.95,0)" xlink:href="#bm"/></g><g id="Q"><use transform="matrix(0.05,0,0,0.05,0,0)" xlink:href="#bC"/><use transform="matrix(0.05,0,0,0.05,3.95,0)" xlink:href="#bD"/><use transform="matrix(0.05,0,0,0.05,13.949999999999998,0)" xlink:href="#bO"/><use transform="matrix(0.05,0,0,0.05,23.95,0)" xlink:href="#bT"/><use transform="matrix(0.05,0,0,0.05,33.95,0)" xlink:href="#bm"/><use transform="matrix(0.05,0,0,0.05,42.95,0)" xlink:href="#bp"/><use transform="matrix(0.05,0,0,0.05,47.95,0)" xlink:href="#br"/><use transform="matrix(0.05,0,0,0.05,53.900000000000006,0)" xlink:href="#bQ"/></g><path fill="#333" d="M103-194c29 0 47 14 56 36 2-11 5-23 8-32h30L160-5C157 61 82 97 21 62 9 55 4 45 1 30l28-7c7 42 83 31 92-3 4-16 9-38 13-55-13 20-29 36-62 36-40 0-60-25-60-64 0-71 23-131 91-131zm4 24c-53 0-58 54-61 104-2 27 10 44 36 44 49 0 65-50 67-102 1-29-15-46-42-46" id="bU"/><g id="R"><use transform="matrix(0.05,0,0,0.05,0,0)" xlink:href="#aQ"/><use transform="matrix(0.05,0,0,0.05,12.950000000000001,0)" xlink:href="#aP"/><use transform="matrix(0.05,0,0,0.05,21.950000000000003,0)" xlink:href="#ba"/><use transform="matrix(0.05,0,0,0.05,31.950000000000003,0)" xlink:href="#bU"/><use transform="matrix(0.05,0,0,0.05,41.95,0)" xlink:href="#aR"/></g><g id="S"><use transform="matrix(0.05,0,0,0.05,0,0)" xlink:href="#bk"/><use transform="matrix(0.05,0,0,0.05,10,0)" xlink:href="#aJ"/><use transform="matrix(0.05,0,0,0.05,20,0)" xlink:href="#aS"/><use transform="matrix(0.05,0,0,0.05,30,0)" xlink:href="#aN"/><use transform="matrix(0.05,0,0,0.05,33.95,0)" xlink:href="#aJ"/><use transform="matrix(0.05,0,0,0.05,43.95,0)" xlink:href="#bU"/><use transform="matrix(0.05,0,0,0.05,53.95,0)" xlink:href="#aO"/><use transform="matrix(0.05,0,0,0.05,57.900000000000006,0)" xlink:href="#bk"/><use transform="matrix(0.05,0,0,0.05,67.9,0)" xlink:href="#aP"/></g></defs></g></svg>